<mxfile host="65bd71144e">
    <diagram id="O70tG3vJ-LUWQw6KVbQe" name="Page-1">
        <mxGraphModel dx="1884" dy="816" grid="1" gridSize="10" guides="1" tooltips="1" connect="1" arrows="1" fold="1" page="1" pageScale="1" pageWidth="1169" pageHeight="1654" math="0" shadow="0">
            <root>
                <mxCell id="0"/>
                <mxCell id="1" parent="0"/>
                <mxCell id="2" value="git" style="rounded=0;whiteSpace=wrap;html=1;verticalAlign=top;fontSize=16;fontStyle=1" parent="1" vertex="1">
                    <mxGeometry x="170" y="10" width="820" height="640" as="geometry"/>
                </mxCell>
                <mxCell id="3" value="git hooks" style="rounded=0;whiteSpace=wrap;html=1;fontSize=16;verticalAlign=top;fontStyle=1;fillColor=#CCCCCC;" vertex="1" parent="1">
                    <mxGeometry x="190" y="70" width="780" height="560" as="geometry"/>
                </mxCell>
                <mxCell id="4" value="client-side hooks" style="rounded=1;whiteSpace=wrap;html=1;fontSize=16;verticalAlign=top;fontStyle=1;arcSize=7;" vertex="1" parent="1">
                    <mxGeometry x="200" y="120" width="370" height="500" as="geometry"/>
                </mxCell>
                <mxCell id="5" value="server-side hooks" style="rounded=1;whiteSpace=wrap;html=1;fontSize=16;verticalAlign=top;fontStyle=1;arcSize=8;" vertex="1" parent="1">
                    <mxGeometry x="630" y="120" width="320" height="170" as="geometry"/>
                </mxCell>
                <mxCell id="6" value="" style="shape=image;verticalLabelPosition=bottom;labelBackgroundColor=default;verticalAlign=top;aspect=fixed;imageAspect=0;image=https://miro.medium.com/max/1400/1*B1MvSe4duhojijKURp-DJw.jpeg;" vertex="1" parent="1">
                    <mxGeometry x="214.82" y="150" width="340.37" height="180" as="geometry"/>
                </mxCell>
                <mxCell id="12" value="husky" style="shape=cube;whiteSpace=wrap;html=1;boundedLbl=1;backgroundOutline=1;darkOpacity=0.05;darkOpacity2=0.1;fontSize=16;align=left;verticalAlign=top;fontStyle=1;fillColor=#fff2cc;strokeColor=#d6b656;" vertex="1" parent="1">
                    <mxGeometry x="210" y="340" width="350" height="140" as="geometry"/>
                </mxCell>
                <mxCell id="13" value="" style="group" vertex="1" connectable="0" parent="1">
                    <mxGeometry x="275.19" y="390" width="280" height="80" as="geometry"/>
                </mxCell>
                <mxCell id="7" value="pre-commit hooks" style="rounded=0;whiteSpace=wrap;html=1;fontSize=16;align=left;" vertex="1" parent="13">
                    <mxGeometry width="280" height="40" as="geometry"/>
                </mxCell>
                <mxCell id="8" value="commit-msg hooks" style="rounded=0;whiteSpace=wrap;html=1;fontSize=16;align=left;" vertex="1" parent="13">
                    <mxGeometry y="40" width="280" height="40" as="geometry"/>
                </mxCell>
                <mxCell id="10" value="lint-staged" style="shape=step;perimeter=stepPerimeter;whiteSpace=wrap;html=1;fixedSize=1;fontSize=16;size=5;fillColor=#ffe6cc;strokeColor=#d79b00;" vertex="1" parent="13">
                    <mxGeometry x="150" y="10" width="120" height="20" as="geometry"/>
                </mxCell>
                <mxCell id="11" value="commitlint" style="shape=step;perimeter=stepPerimeter;whiteSpace=wrap;html=1;fixedSize=1;fontSize=16;size=5;fillColor=#e1d5e7;strokeColor=#9673a6;" vertex="1" parent="13">
                    <mxGeometry x="150" y="50" width="120" height="20" as="geometry"/>
                </mxCell>
                <mxCell id="15" value=".commitlintrc.js" style="swimlane;fontStyle=0;childLayout=stackLayout;horizontal=1;startSize=30;horizontalStack=0;resizeParent=1;resizeParentMax=0;resizeLast=0;collapsible=1;marginBottom=0;whiteSpace=wrap;html=1;fontSize=16;fillColor=#dae8fc;strokeColor=#6c8ebf;" vertex="1" parent="1">
                    <mxGeometry x="410" y="500" width="150" height="60" as="geometry"/>
                </mxCell>
                <mxCell id="16" value="checks commit matching our commit regex" style="text;strokeColor=none;fillColor=none;align=left;verticalAlign=middle;spacingLeft=4;spacingRight=4;overflow=hidden;points=[[0,0.5],[1,0.5]];portConstraint=eastwest;rotatable=0;whiteSpace=wrap;html=1;fontSize=12;" vertex="1" parent="15">
                    <mxGeometry y="30" width="150" height="30" as="geometry"/>
                </mxCell>
                <mxCell id="20" style="edgeStyle=none;curved=1;html=1;entryX=0.5;entryY=0;entryDx=0;entryDy=0;fontSize=16;fillColor=#dae8fc;strokeColor=#6c8ebf;" edge="1" parent="1" source="11" target="15">
                    <mxGeometry relative="1" as="geometry"/>
                </mxCell>
                <mxCell id="21" value="" style="verticalLabelPosition=bottom;html=1;verticalAlign=top;align=center;strokeColor=none;fillColor=#00BEF2;shape=mxgraph.azure.github_code;pointerEvents=1;fontSize=12;" vertex="1" parent="1">
                    <mxGeometry x="920" y="680" width="50" height="50" as="geometry"/>
                </mxCell>
                <mxCell id="22" value="" style="verticalLabelPosition=bottom;html=1;verticalAlign=top;align=center;strokeColor=none;fillColor=#00BEF2;shape=mxgraph.azure.git_repository;fontSize=12;" vertex="1" parent="1">
                    <mxGeometry x="610" y="10" width="50" height="50" as="geometry"/>
                </mxCell>
                <mxCell id="24" value="standard-version" style="shape=step;perimeter=stepPerimeter;whiteSpace=wrap;html=1;fixedSize=1;fontSize=16;size=5;fillColor=#d5e8d4;strokeColor=#82b366;" vertex="1" parent="1">
                    <mxGeometry x="420" y="695" width="150" height="20" as="geometry"/>
                </mxCell>
                <mxCell id="25" value="&lt;font style=&quot;font-size: 16px;&quot;&gt;CHANGELOG.md&lt;/font&gt;" style="sketch=0;pointerEvents=1;shadow=0;dashed=0;html=1;strokeColor=none;fillColor=#434445;aspect=fixed;labelPosition=center;verticalLabelPosition=bottom;verticalAlign=top;align=center;outlineConnect=0;shape=mxgraph.vvd.log_files;fontSize=12;" vertex="1" parent="1">
                    <mxGeometry x="660" y="670" width="56" height="70" as="geometry"/>
                </mxCell>
                <mxCell id="26" value="Release" style="verticalLabelPosition=bottom;html=1;verticalAlign=top;strokeWidth=1;align=center;outlineConnect=0;dashed=0;outlineConnect=0;shape=mxgraph.aws3d.application;fillColor=#4286c5;strokeColor=#57A2D8;aspect=fixed;fontSize=16;" vertex="1" parent="1">
                    <mxGeometry x="800" y="670" width="62" height="68.8" as="geometry"/>
                </mxCell>
                <mxCell id="28" value="" style="html=1;shadow=0;dashed=0;align=center;verticalAlign=middle;shape=mxgraph.arrows2.arrow;dy=0.77;dx=19.83;notch=5.17;fontSize=16;fillColor=#CCCCCC;" vertex="1" parent="1">
                    <mxGeometry x="580" y="690" width="60" height="30" as="geometry"/>
                </mxCell>
                <mxCell id="29" value="" style="html=1;shadow=0;dashed=0;align=center;verticalAlign=middle;shape=mxgraph.arrows2.arrow;dy=0.77;dx=19.83;notch=5.17;fontSize=16;fillColor=#CCCCCC;" vertex="1" parent="1">
                    <mxGeometry x="730" y="689.4" width="60" height="30" as="geometry"/>
                </mxCell>
                <mxCell id="30" value="https://www.atlassian.com/git/tutorials/git-hooks" style="text;html=1;strokeColor=none;fillColor=none;align=center;verticalAlign=middle;whiteSpace=wrap;rounded=0;fontSize=16;" vertex="1" parent="1">
                    <mxGeometry x="620" y="600" width="340" height="30" as="geometry"/>
                </mxCell>
            </root>
        </mxGraphModel>
    </diagram>
</mxfile>